<svg xmlns="http://www.w3.org/2000/svg" viewBox="0 0 64 64" width="256" height="256" role="img" aria-label="Maison de Couture &amp; Opéra"><title>Maison de Couture &amp; Opéra</title><ellipse cx="32" cy="57.5" rx="25" ry="3.4" fill="#1f2a25" opacity=".16"/><rect x="8" y="22" width="48" height="34" fill="#9fa8ae"/><rect x="6" y="16" width="52" height="7" rx="2" fill="#6b4436"/><rect x="6.0" y="23" width="8.7" height="6" fill="#efe6cf"/><rect x="14.7" y="23" width="8.7" height="6" fill="#6b4436"/><rect x="23.4" y="23" width="8.7" height="6" fill="#efe6cf"/><rect x="32.099999999999994" y="23" width="8.7" height="6" fill="#6b4436"/><rect x="40.8" y="23" width="8.7" height="6" fill="#efe6cf"/><rect x="49.5" y="23" width="8.7" height="6" fill="#6b4436"/><rect x="14" y="34" width="16" height="12" fill="#9fc4cf" opacity=".9"/><rect x="38" y="34" width="12" height="22" fill="#50322a"/><circle cx="41" cy="45" r="1.4" fill="#e0913a"/><path d="M16 52 h14" stroke="#6b4f3a" stroke-width="3"/><g transform="translate(38,38)"><circle cx="13" cy="13" r="13" fill="#fffdf8" stroke="#1f2a25" stroke-width="1.6"/><g transform="translate(13,13) scale(0.85) translate(-12,-12)"><path d="M9 4 h6 l5 3.4 -2.4 3.6 -1.6 -1.2 V21 H8 V9.8 L6.4 11 4 7.4 Z" fill="#7a3f8c"/><path d="M9 4 c0 2.2 1.4 3.4 3 3.4 c1.6 0 3 -1.2 3 -3.4" fill="none" stroke="#c9951f" stroke-width="1.2"/><path d="M8 14 h8" stroke="#c9951f" stroke-width="1.2"/></g></g></svg>
