<svg xmlns="http://www.w3.org/2000/svg" viewBox="0 0 64 64" width="256" height="256" role="img" aria-label="Ferme Hydroponique Automatisée"><title>Ferme Hydroponique Automatisée</title><ellipse cx="32" cy="57.5" rx="25" ry="3.4" fill="#1f2a25" opacity=".16"/><path d="M6 56 V34 A26 22 0 0 1 58 34 v22 Z" fill="#9fe6f0" opacity=".8"/><path d="M32 12 V56 M16 17 V56 M48 17 V56 M6 34 h52" stroke="#fffdf8" stroke-width="1.4" opacity=".75" fill="none"/><rect x="4" y="53" width="56" height="4" rx="1.6" fill="#6b6597"/><path d="M16 52 v-8 M16 46 l-4 -4 M16 46 l4 -4" stroke="#ffd977" stroke-width="2" stroke-linecap="round" fill="none"/><path d="M32 52 v-8 M32 46 l-4 -4 M32 46 l4 -4" stroke="#ffd977" stroke-width="2" stroke-linecap="round" fill="none"/><path d="M48 52 v-8 M48 46 l-4 -4 M48 46 l4 -4" stroke="#ffd977" stroke-width="2" stroke-linecap="round" fill="none"/><g transform="translate(38,38)"><circle cx="13" cy="13" r="13" fill="#fffdf8" stroke="#1f2a25" stroke-width="1.6"/><g transform="translate(13,13) scale(0.85) translate(-12,-12)"><circle cx="12" cy="12" r="7.4" fill="#2f4a3a"/><path d="M8 12 h8 M12 8 v8" stroke="#8fd0c0" stroke-width="1.8" stroke-linecap="round"/><circle cx="12" cy="12" r="7.4" fill="none" stroke="#8f7fe0" stroke-width="1.3" stroke-dasharray="3 2"/></g></g></svg>
