<svg xmlns="http://www.w3.org/2000/svg" viewBox="0 0 64 64" width="256" height="256" role="img" aria-label="Raffinerie de Sucre"><title>Raffinerie de Sucre</title><ellipse cx="32" cy="57.5" rx="25" ry="3.4" fill="#1f2a25" opacity=".16"/><rect x="46" y="8" width="9" height="20" fill="#b4a184"/><rect x="45" y="6" width="11" height="4" rx="1.4" fill="#9d3f2c"/><path d="M6 56 V34 l10 -10 v10 l10 -10 v10 l10 -10 v10 l10 -10 v32 Z" fill="#d6c4a4"/><path d="M16 24 v10 M26 24 v10 M36 24 v10" stroke="#b4a184" stroke-width="1.4"/><rect x="10" y="40" width="8" height="7" fill="#a8cbd8" opacity=".9"/><rect x="22" y="40" width="8" height="7" fill="#a8cbd8" opacity=".9"/><rect x="34" y="40" width="8" height="7" fill="#a8cbd8" opacity=".9"/><rect x="46" y="42" width="10" height="14" fill="#7c2f20"/><circle cx="52" cy="4" r="4" fill="#fffdf8" opacity=".5"/><circle cx="44" cy="6" r="3" fill="#fffdf8" opacity=".35"/><g transform="translate(38,38)"><circle cx="13" cy="13" r="13" fill="#fffdf8" stroke="#1f2a25" stroke-width="1.6"/><g transform="translate(13,13) scale(0.85) translate(-12,-12)"><rect x="3.5" y="11" width="8" height="7" rx="1" fill="#fffdf8" stroke="#55615b" stroke-width=".9"/><rect x="12.5" y="11" width="8" height="7" rx="1" fill="#efe6cf" stroke="#55615b" stroke-width=".9"/><rect x="8" y="4.5" width="8" height="7" rx="1" fill="#fffdf8" stroke="#55615b" stroke-width=".9"/></g></g></svg>
