<svg xmlns="http://www.w3.org/2000/svg" viewBox="0 0 64 64" width="256" height="256" role="img" aria-label="Réacteur à Fusion Spatiale"><title>Réacteur à Fusion Spatiale</title><ellipse cx="32" cy="57.5" rx="25" ry="3.4" fill="#1f2a25" opacity=".16"/><path d="M10 56 C12 42 8 34 12 22 h16 c4 12 0 20 2 34 Z" fill="#e4eaee"/><path d="M20 22 c4 12 0 20 2 34 H10" fill="#bcc7cf" opacity=".4"/><rect x="34" y="30" width="24" height="26" rx="2" fill="#e4eaee"/><rect x="34" y="26" width="24" height="5" rx="1.6" fill="#8f7fe0"/><path d="M47 33 L40 45 h6 l-2 9 l8 -13 h-6 Z" fill="#c9bcff" stroke="#8f7fe0" stroke-width=".8"/><ellipse cx="20" cy="22" rx="8" ry="3" fill="#aab6bf"/><circle cx="18" cy="14" r="5" fill="#fffdf8" opacity=".45"/><circle cx="26" cy="10" r="3.4" fill="#fffdf8" opacity=".3"/><g transform="translate(38,38)"><circle cx="13" cy="13" r="13" fill="#fffdf8" stroke="#1f2a25" stroke-width="1.6"/><g transform="translate(13,13) scale(0.85) translate(-12,-12)"><circle cx="12" cy="12" r="8.4" fill="none" stroke="#8f7fe0" stroke-width="1.6" opacity=".7"/><path d="M13 5 L7.6 13.4 h4 L11 19 L16.4 10.6 h-4 Z" fill="#c9a63a" stroke="#c9951f" stroke-width=".7"/></g></g></svg>
